<?xml version="1.0" encoding="UTF-8" standalone="no"?>
<!DOCTYPE svg PUBLIC "-//W3C//DTD SVG 1.1//EN"
 "http://www.w3.org/Graphics/SVG/1.1/DTD/svg11.dtd">
<!-- Generated by graphviz version 2.38.0 (20140413.2041)
 -->
<!-- Title: G Pages: 1 -->
<svg width="912pt" height="404pt"
 viewBox="0.00 0.00 911.86 404.00" xmlns="http://www.w3.org/2000/svg" xmlns:xlink="http://www.w3.org/1999/xlink">
<g id="graph0" class="graph" transform="scale(1 1) rotate(0) translate(4 400)">
<title>G</title>
<polygon fill="white" stroke="none" points="-4,4 -4,-400 907.86,-400 907.86,4 -4,4"/>
<!-- AC -->
<g id="node1" class="node"><title>AC</title>
<ellipse fill="none" stroke="black" cx="365" cy="-378" rx="27" ry="18"/>
<text text-anchor="middle" x="365" y="-373.8" font-family="Times,serif" font-size="14.00">AC</text>
</g>
<!-- CableBox -->
<g id="node2" class="node"><title>CableBox</title>
<ellipse fill="none" stroke="black" cx="716" cy="-306" rx="45.4527" ry="18"/>
<text text-anchor="middle" x="716" y="-301.8" font-family="Times,serif" font-size="14.00">CableBox</text>
</g>
<!-- AC&#45;&gt;CableBox -->
<g id="edge1" class="edge"><title>AC&#45;&gt;CableBox</title>
<path fill="none" stroke="gray" d="M391.459,-373.444C443.641,-366.174 563.32,-348.232 662,-324 665.55,-323.128 669.207,-322.151 672.867,-321.118"/>
<polygon fill="gray" stroke="gray" points="673.883,-324.467 682.486,-318.284 671.904,-317.753 673.883,-324.467"/>
</g>
<!-- HTPC -->
<g id="node3" class="node"><title>HTPC</title>
<ellipse fill="none" stroke="black" cx="446" cy="-162" rx="32.9255" ry="18"/>
<text text-anchor="middle" x="446" y="-157.8" font-family="Times,serif" font-size="14.00">HTPC</text>
</g>
<!-- AC&#45;&gt;HTPC -->
<g id="edge2" class="edge"><title>AC&#45;&gt;HTPC</title>
<path fill="none" stroke="gray" d="M378.428,-362.373C387.972,-351.852 400.997,-337.243 412,-324 424.953,-308.409 424.515,-301.08 440,-288 465.824,-266.187 489.653,-281.014 507,-252 515.211,-238.267 513.637,-230.559 507,-216 500.585,-201.927 488.382,-190.146 476.567,-181.293"/>
<polygon fill="gray" stroke="gray" points="478.318,-178.246 468.12,-175.373 474.301,-183.979 478.318,-178.246"/>
</g>
<!-- HTPCHDD -->
<g id="node4" class="node"><title>HTPCHDD</title>
<ellipse fill="none" stroke="black" cx="446" cy="-234" rx="51.7433" ry="18"/>
<text text-anchor="middle" x="446" y="-229.8" font-family="Times,serif" font-size="14.00">HTPCHDD</text>
</g>
<!-- AC&#45;&gt;HTPCHDD -->
<g id="edge3" class="edge"><title>AC&#45;&gt;HTPCHDD</title>
<path fill="none" stroke="gray" d="M373.087,-360.698C382.146,-342.677 397.471,-312.903 412,-288 417.315,-278.889 423.453,-269.118 429.039,-260.477"/>
<polygon fill="gray" stroke="gray" points="432.066,-262.244 434.603,-251.958 426.205,-258.417 432.066,-262.244"/>
</g>
<!-- Headphones -->
<g id="node5" class="node"><title>Headphones</title>
<ellipse fill="none" stroke="black" cx="118" cy="-18" rx="53.6385" ry="18"/>
<text text-anchor="middle" x="118" y="-13.8" font-family="Times,serif" font-size="14.00">Headphones</text>
</g>
<!-- AC&#45;&gt;Headphones -->
<g id="edge4" class="edge"><title>AC&#45;&gt;Headphones</title>
<path fill="none" stroke="gray" d="M337.641,-377.514C284.65,-377.351 165.776,-371.249 81,-324 34.2811,-297.962 0,-288.485 0,-235 0,-235 0,-235 0,-161 0,-107.959 49.3032,-64.1574 84.1711,-39.8128"/>
<polygon fill="gray" stroke="gray" points="86.3669,-42.5529 92.686,-34.0489 82.4429,-36.7561 86.3669,-42.5529"/>
</g>
<!-- Modem -->
<g id="node6" class="node"><title>Modem</title>
<ellipse fill="none" stroke="black" cx="530" cy="-306" rx="37.7352" ry="18"/>
<text text-anchor="middle" x="530" y="-301.8" font-family="Times,serif" font-size="14.00">Modem</text>
</g>
<!-- AC&#45;&gt;Modem -->
<g id="edge5" class="edge"><title>AC&#45;&gt;Modem</title>
<path fill="none" stroke="gray" d="M387.253,-367.559C414.436,-356.027 460.809,-336.354 493.303,-322.568"/>
<polygon fill="gray" stroke="gray" points="495.066,-325.622 502.905,-318.495 492.332,-319.178 495.066,-325.622"/>
</g>
<!-- OUYA -->
<g id="node7" class="node"><title>OUYA</title>
<ellipse fill="none" stroke="black" cx="103" cy="-162" rx="34.8458" ry="18"/>
<text text-anchor="middle" x="103" y="-157.8" font-family="Times,serif" font-size="14.00">OUYA</text>
</g>
<!-- AC&#45;&gt;OUYA -->
<g id="edge6" class="edge"><title>AC&#45;&gt;OUYA</title>
<path fill="none" stroke="gray" d="M338.051,-374.907C279.212,-368.649 140.854,-344.288 95,-252 85.3763,-232.631 88.607,-207.963 93.5457,-189.512"/>
<polygon fill="gray" stroke="gray" points="96.9638,-190.298 96.4801,-179.714 90.258,-188.29 96.9638,-190.298"/>
</g>
<!-- PlayStation3 -->
<g id="node8" class="node"><title>PlayStation3</title>
<ellipse fill="none" stroke="black" cx="159" cy="-234" rx="55.118" ry="18"/>
<text text-anchor="middle" x="159" y="-229.8" font-family="Times,serif" font-size="14.00">PlayStation3</text>
</g>
<!-- AC&#45;&gt;PlayStation3 -->
<g id="edge7" class="edge"><title>AC&#45;&gt;PlayStation3</title>
<path fill="none" stroke="gray" d="M339.744,-371.59C310.623,-364.421 262.36,-349.594 228,-324 205.125,-306.961 185.912,-280.437 173.618,-260.773"/>
<polygon fill="gray" stroke="gray" points="176.485,-258.751 168.31,-252.012 170.498,-262.378 176.485,-258.751"/>
</g>
<!-- Router -->
<g id="node9" class="node"><title>Router</title>
<ellipse fill="none" stroke="black" cx="342" cy="-234" rx="34.3527" ry="18"/>
<text text-anchor="middle" x="342" y="-229.8" font-family="Times,serif" font-size="14.00">Router</text>
</g>
<!-- AC&#45;&gt;Router -->
<g id="edge8" class="edge"><title>AC&#45;&gt;Router</title>
<path fill="none" stroke="gray" d="M362.226,-359.871C358.306,-335.67 351.105,-291.211 346.437,-262.393"/>
<polygon fill="gray" stroke="gray" points="349.838,-261.501 344.784,-252.189 342.928,-262.62 349.838,-261.501"/>
</g>
<!-- Soundbar -->
<g id="node10" class="node"><title>Soundbar</title>
<ellipse fill="none" stroke="black" cx="352" cy="-18" rx="44.0078" ry="18"/>
<text text-anchor="middle" x="352" y="-13.8" font-family="Times,serif" font-size="14.00">Soundbar</text>
</g>
<!-- AC&#45;&gt;Soundbar -->
<g id="edge9" class="edge"><title>AC&#45;&gt;Soundbar</title>
<path fill="none" stroke="gray" d="M391.875,-375.266C477.841,-369.478 742.12,-349.729 770,-324 799.724,-296.569 789,-275.447 789,-235 789,-235 789,-235 789,-161 789,-80.8539 519.775,-39.0392 403.957,-24.759"/>
<polygon fill="gray" stroke="gray" points="404.25,-21.2689 393.901,-23.5409 403.408,-28.2181 404.25,-21.2689"/>
</g>
<!-- TV -->
<g id="node11" class="node"><title>TV</title>
<ellipse fill="none" stroke="black" cx="294" cy="-90" rx="27" ry="18"/>
<text text-anchor="middle" x="294" y="-85.8" font-family="Times,serif" font-size="14.00">TV</text>
</g>
<!-- AC&#45;&gt;TV -->
<g id="edge10" class="edge"><title>AC&#45;&gt;TV</title>
<path fill="none" stroke="gray" d="M338.222,-374.346C281.35,-368.232 150.935,-351.53 117,-324 63.418,-280.532 70.8952,-247.963 59,-180 56.2415,-164.24 49.008,-156.496 59,-144 83.3928,-113.493 197.295,-99.2887 257.103,-93.8378"/>
<polygon fill="gray" stroke="gray" points="257.603,-97.3075 267.26,-92.949 256.993,-90.3341 257.603,-97.3075"/>
</g>
<!-- Wii -->
<g id="node12" class="node"><title>Wii</title>
<ellipse fill="none" stroke="black" cx="844" cy="-306" rx="27" ry="18"/>
<text text-anchor="middle" x="844" y="-301.8" font-family="Times,serif" font-size="14.00">Wii</text>
</g>
<!-- AC&#45;&gt;Wii -->
<g id="edge11" class="edge"><title>AC&#45;&gt;Wii</title>
<path fill="none" stroke="gray" d="M391.823,-374.719C474.454,-367.542 724.284,-344.666 803,-324 806.382,-323.112 809.853,-322.005 813.275,-320.784"/>
<polygon fill="gray" stroke="gray" points="814.624,-324.015 822.677,-317.13 812.089,-317.49 814.624,-324.015"/>
</g>
<!-- Xbox360 -->
<g id="node13" class="node"><title>Xbox360</title>
<ellipse fill="none" stroke="black" cx="249" cy="-162" rx="43.0474" ry="18"/>
<text text-anchor="middle" x="249" y="-157.8" font-family="Times,serif" font-size="14.00">Xbox360</text>
</g>
<!-- AC&#45;&gt;Xbox360 -->
<g id="edge12" class="edge"><title>AC&#45;&gt;Xbox360</title>
<path fill="none" stroke="gray" d="M347.211,-364.13C334.765,-354.335 318.545,-339.869 308,-324 279.753,-281.492 262.878,-223.71 254.813,-190.177"/>
<polygon fill="gray" stroke="gray" points="258.167,-189.145 252.501,-180.192 251.347,-190.724 258.167,-189.145"/>
</g>
<!-- Xbox -->
<g id="node14" class="node"><title>Xbox</title>
<ellipse fill="none" stroke="black" cx="340" cy="-162" rx="29.5189" ry="18"/>
<text text-anchor="middle" x="340" y="-157.8" font-family="Times,serif" font-size="14.00">Xbox</text>
</g>
<!-- AC&#45;&gt;Xbox -->
<g id="edge13" class="edge"><title>AC&#45;&gt;Xbox</title>
<path fill="none" stroke="gray" d="M353.547,-361.449C337.624,-338.763 309.565,-294.638 299,-252 295.152,-236.47 293.827,-231.141 299,-216 302.859,-204.706 310.209,-193.952 317.633,-185.119"/>
<polygon fill="gray" stroke="gray" points="320.313,-187.373 324.374,-177.587 315.097,-182.705 320.313,-187.373"/>
</g>
<!-- XboxOne -->
<g id="node15" class="node"><title>XboxOne</title>
<ellipse fill="none" stroke="black" cx="717" cy="-234" rx="44.4837" ry="18"/>
<text text-anchor="middle" x="717" y="-229.8" font-family="Times,serif" font-size="14.00">XboxOne</text>
</g>
<!-- AC&#45;&gt;XboxOne -->
<g id="edge14" class="edge"><title>AC&#45;&gt;XboxOne</title>
<path fill="none" stroke="gray" d="M383.489,-364.558C398.857,-354.069 421.176,-338.492 440,-324 459.75,-308.795 460.527,-298.779 483,-288 556.561,-252.719 583.976,-272.279 663,-252 666.591,-251.079 670.296,-250.06 674.003,-248.992"/>
<polygon fill="gray" stroke="gray" points="675.165,-252.298 683.747,-246.085 673.163,-245.59 675.165,-252.298"/>
</g>
<!-- CableBox&#45;&gt;XboxOne -->
<g id="edge28" class="edge"><title>CableBox&#45;&gt;XboxOne</title>
<path fill="none" stroke="blue" d="M716.247,-287.697C716.357,-279.983 716.49,-270.712 716.613,-262.112"/>
<polygon fill="blue" stroke="blue" points="720.112,-262.153 716.756,-252.104 713.113,-262.053 720.112,-262.153"/>
</g>
<!-- HTPC&#45;&gt;TV -->
<g id="edge21" class="edge"><title>HTPC&#45;&gt;TV</title>
<path fill="none" stroke="blue" d="M421.579,-149.753C395.341,-137.67 353.573,-118.435 325.027,-105.289"/>
<polygon fill="blue" stroke="blue" points="326.441,-102.087 315.894,-101.083 323.513,-108.445 326.441,-102.087"/>
</g>
<!-- HTPCHDD&#45;&gt;HTPC -->
<g id="edge29" class="edge"><title>HTPCHDD&#45;&gt;HTPC</title>
<path fill="none" stroke="green" d="M446,-215.697C446,-207.983 446,-198.712 446,-190.112"/>
<polygon fill="green" stroke="green" points="449.5,-190.104 446,-180.104 442.5,-190.104 449.5,-190.104"/>
</g>
<!-- Modem&#45;&gt;Router -->
<g id="edge17" class="edge"><title>Modem&#45;&gt;Router</title>
<path fill="none" stroke="orange" d="M500.755,-294.563C471.411,-284.032 424.957,-267.198 385,-252 382.637,-251.101 380.204,-250.166 377.754,-249.217"/>
<polygon fill="orange" stroke="orange" points="378.925,-245.917 368.337,-245.538 376.377,-252.437 378.925,-245.917"/>
</g>
<!-- OUYA&#45;&gt;TV -->
<g id="edge22" class="edge"><title>OUYA&#45;&gt;TV</title>
<path fill="none" stroke="blue" d="M130.773,-150.821C165.386,-138.136 224.456,-116.488 261.243,-103.005"/>
<polygon fill="blue" stroke="blue" points="262.804,-106.161 270.989,-99.4333 260.395,-99.5882 262.804,-106.161"/>
</g>
<!-- PlayStation3&#45;&gt;TV -->
<g id="edge23" class="edge"><title>PlayStation3&#45;&gt;TV</title>
<path fill="none" stroke="blue" d="M162.747,-215.741C167.716,-196.318 178.141,-164.774 197,-144 214.371,-124.865 240.31,-111.195 260.994,-102.536"/>
<polygon fill="blue" stroke="blue" points="262.379,-105.752 270.372,-98.797 259.786,-99.2497 262.379,-105.752"/>
</g>
<!-- Router&#45;&gt;HTPC -->
<g id="edge18" class="edge"><title>Router&#45;&gt;HTPC</title>
<path fill="none" stroke="orange" d="M362.547,-219.17C378.174,-208.652 399.872,-194.048 417.226,-182.367"/>
<polygon fill="orange" stroke="orange" points="419.508,-185.05 425.85,-176.563 415.599,-179.243 419.508,-185.05"/>
</g>
<!-- Router&#45;&gt;Xbox360 -->
<g id="edge20" class="edge"><title>Router&#45;&gt;Xbox360</title>
<path fill="none" stroke="orange" d="M323.18,-218.834C310.047,-208.949 292.283,-195.578 277.431,-184.399"/>
<polygon fill="orange" stroke="orange" points="279.174,-181.331 269.079,-178.114 274.964,-186.924 279.174,-181.331"/>
</g>
<!-- Router&#45;&gt;Xbox -->
<g id="edge19" class="edge"><title>Router&#45;&gt;Xbox</title>
<path fill="none" stroke="orange" d="M341.506,-215.697C341.285,-207.983 341.02,-198.712 340.775,-190.112"/>
<polygon fill="orange" stroke="orange" points="344.273,-190 340.489,-180.104 337.276,-190.2 344.273,-190"/>
</g>
<!-- TV&#45;&gt;Headphones -->
<g id="edge32" class="edge"><title>TV&#45;&gt;Headphones</title>
<path fill="none" stroke="purple" d="M271.351,-79.992C243.516,-68.9213 195.697,-49.9022 160.842,-36.0395"/>
<polygon fill="purple" stroke="purple" points="161.968,-32.7206 151.382,-32.2771 159.381,-39.2251 161.968,-32.7206"/>
</g>
<!-- TV&#45;&gt;Soundbar -->
<g id="edge33" class="edge"><title>TV&#45;&gt;Soundbar</title>
<path fill="none" stroke="purple" d="M306.585,-73.811C313.946,-64.9271 323.411,-53.5041 331.793,-43.3875"/>
<polygon fill="purple" stroke="purple" points="334.538,-45.5612 338.223,-35.6278 329.147,-41.095 334.538,-45.5612"/>
</g>
<!-- Wii&#45;&gt;TV -->
<g id="edge24" class="edge"><title>Wii&#45;&gt;TV</title>
<path fill="none" stroke="red" d="M834.561,-288.815C822.167,-268.922 798.59,-235.422 770,-216 628.178,-119.655 416.223,-97.5474 331.223,-92.4916"/>
<polygon fill="red" stroke="red" points="331.206,-88.9855 321.029,-91.932 330.822,-95.975 331.206,-88.9855"/>
</g>
<!-- Xbox360&#45;&gt;TV -->
<g id="edge26" class="edge"><title>Xbox360&#45;&gt;TV</title>
<path fill="none" stroke="blue" d="M259.664,-144.411C265.179,-135.832 272.02,-125.191 278.141,-115.67"/>
<polygon fill="blue" stroke="blue" points="281.258,-117.293 283.722,-106.988 275.37,-113.507 281.258,-117.293"/>
</g>
<!-- Xbox&#45;&gt;TV -->
<g id="edge25" class="edge"><title>Xbox&#45;&gt;TV</title>
<path fill="none" stroke="red" d="M329.562,-145.116C323.798,-136.345 316.516,-125.264 310.045,-115.416"/>
<polygon fill="red" stroke="red" points="312.814,-113.256 304.397,-106.821 306.964,-117.1 312.814,-113.256"/>
</g>
<!-- XboxOne&#45;&gt;TV -->
<g id="edge27" class="edge"><title>XboxOne&#45;&gt;TV</title>
<path fill="none" stroke="blue" d="M687.352,-220.334C644.041,-202.093 560.709,-167.989 488,-144 433.061,-125.874 367.969,-109.009 328.882,-99.3661"/>
<polygon fill="blue" stroke="blue" points="329.598,-95.938 319.052,-96.9582 327.932,-102.737 329.598,-95.938"/>
</g>
<!-- Cable -->
<g id="node16" class="node"><title>Cable</title>
<ellipse fill="none" stroke="black" cx="623" cy="-378" rx="30.9706" ry="18"/>
<text text-anchor="middle" x="623" y="-373.8" font-family="Times,serif" font-size="14.00">Cable</text>
</g>
<!-- Cable&#45;&gt;CableBox -->
<g id="edge15" class="edge"><title>Cable&#45;&gt;CableBox</title>
<path fill="none" stroke="pink" d="M641.374,-363.17C654.594,-353.219 672.674,-339.611 687.726,-328.281"/>
<polygon fill="pink" stroke="pink" points="689.842,-331.069 695.727,-322.259 685.633,-325.476 689.842,-331.069"/>
</g>
<!-- Cable&#45;&gt;Modem -->
<g id="edge16" class="edge"><title>Cable&#45;&gt;Modem</title>
<path fill="none" stroke="pink" d="M604.626,-363.17C591.138,-353.017 572.591,-339.058 557.362,-327.595"/>
<polygon fill="pink" stroke="pink" points="559.391,-324.741 549.296,-321.524 555.181,-330.334 559.391,-324.741"/>
</g>
<!-- IRReceiver -->
<g id="node17" class="node"><title>IRReceiver</title>
<ellipse fill="none" stroke="black" cx="604" cy="-234" rx="50.2465" ry="18"/>
<text text-anchor="middle" x="604" y="-229.8" font-family="Times,serif" font-size="14.00">IRReceiver</text>
</g>
<!-- IRReceiver&#45;&gt;HTPC -->
<g id="edge30" class="edge"><title>IRReceiver&#45;&gt;HTPC</title>
<path fill="none" stroke="green" d="M573.536,-219.503C546.744,-207.633 507.792,-190.376 479.995,-178.061"/>
<polygon fill="green" stroke="green" points="481.226,-174.779 470.666,-173.928 478.391,-181.179 481.226,-174.779"/>
</g>
<!-- Kinect -->
<g id="node18" class="node"><title>Kinect</title>
<ellipse fill="none" stroke="black" cx="619" cy="-306" rx="33.8596" ry="18"/>
<text text-anchor="middle" x="619" y="-301.8" font-family="Times,serif" font-size="14.00">Kinect</text>
</g>
<!-- Kinect&#45;&gt;XboxOne -->
<g id="edge31" class="edge"><title>Kinect&#45;&gt;XboxOne</title>
<path fill="none" stroke="green" d="M638.362,-291.17C652.387,-281.152 671.602,-267.427 687.527,-256.052"/>
<polygon fill="green" stroke="green" points="689.879,-258.673 695.982,-250.013 685.81,-252.977 689.879,-258.673"/>
</g>
<!-- WiiSensorBar -->
<g id="node19" class="node"><title>WiiSensorBar</title>
<ellipse fill="none" stroke="black" cx="844" cy="-378" rx="59.7202" ry="18"/>
<text text-anchor="middle" x="844" y="-373.8" font-family="Times,serif" font-size="14.00">WiiSensorBar</text>
</g>
<!-- WiiSensorBar&#45;&gt;Wii -->
<g id="edge34" class="edge"><title>WiiSensorBar&#45;&gt;Wii</title>
<path fill="none" stroke="green" d="M844,-359.697C844,-351.983 844,-342.712 844,-334.112"/>
<polygon fill="green" stroke="green" points="847.5,-334.104 844,-324.104 840.5,-334.104 847.5,-334.104"/>
</g>
</g>
</svg>
